<svg width="56" height="56" viewBox="0 0 56 56" fill="none" xmlns="http://www.w3.org/2000/svg">
    <g filter="url(#filter0_d_42_774)">
        <rect width="48" height="48" rx="24" transform="matrix(-1 0 0 1 52 2)" fill="#F02A2A" />
    </g>
    <path fill-rule="evenodd" clip-rule="evenodd"
        d="M23.41 18.59C23.41 16.055 25.465 14 28 14C30.535 14 32.59 16.055 32.59 18.59V25.1803C32.59 27.7153 30.535 29.7703 28 29.7703C25.465 29.7703 23.41 27.7153 23.41 25.1803V18.59ZM28 16.25C26.7077 16.25 25.66 17.2977 25.66 18.59V25.1803C25.66 26.4726 26.7077 27.5203 28 27.5203C29.2924 27.5203 30.34 26.4726 30.34 25.1803V18.59C30.34 17.2977 29.2924 16.25 28 16.25ZM20.125 23.1057C20.7463 23.1057 21.25 23.6094 21.25 24.2307V25.4064C21.25 28.7711 24.1974 31.6294 28 31.6294C31.8026 31.6294 34.75 28.7711 34.75 25.4064V24.2307C34.75 23.6094 35.2537 23.1057 35.875 23.1057C36.4963 23.1057 37 23.6094 37 24.2307V25.4064C37 29.789 33.5087 33.2951 29.125 33.8133V35.75H33.355C33.9763 35.75 34.48 36.2537 34.48 36.875C34.48 37.4963 33.9763 38 33.355 38H22.645C22.0237 38 21.52 37.4963 21.52 36.875C21.52 36.2537 22.0237 35.75 22.645 35.75H26.875V33.8133C22.4913 33.2951 19 29.789 19 25.4064V24.2307C19 23.6094 19.5037 23.1057 20.125 23.1057Z"
        fill="white" />
    <defs>
        <filter id="filter0_d_42_774" x="0" y="0" width="56" height="56"
            filterUnits="userSpaceOnUse" color-interpolation-filters="sRGB">
            <feFlood flood-opacity="0" result="BackgroundImageFix" />
            <feColorMatrix in="SourceAlpha" type="matrix"
                values="0 0 0 0 0 0 0 0 0 0 0 0 0 0 0 0 0 0 127 0" result="hardAlpha" />
            <feOffset dy="2" />
            <feGaussianBlur stdDeviation="2" />
            <feComposite in2="hardAlpha" operator="out" />
            <feColorMatrix type="matrix"
                values="0 0 0 0 1 0 0 0 0 0.47451 0 0 0 0 0.498039 0 0 0 0.7 0" />
            <feBlend mode="normal" in2="BackgroundImageFix" result="effect1_dropShadow_42_774" />
            <feBlend mode="normal" in="SourceGraphic" in2="effect1_dropShadow_42_774" result="shape" />
        </filter>
    </defs>
</svg>
    